<svg xmlns="http://www.w3.org/2000/svg" xmlns:xlink="http://www.w3.org/1999/xlink" width="59.773" height="62" viewBox="0 0 59.773 62">
  <defs>
    <clipPath id="clip-path">
      <rect id="Rectangle_316" data-name="Rectangle 316" width="59.773" height="62" fill="#fff"/>
    </clipPath>
  </defs>
  <g id="Portfolio-icon" opacity="0.82">
    <g id="Group_1470" data-name="Group 1470" clip-path="url(#clip-path)">
      <path id="Path_1931" data-name="Path 1931" d="M54.665,50.683V28.358c0-1.462.042-3.212-1.951-3.32-1.15-.062-2.32,0-3.472,0H47.654c.049-1.648.168-3.477-1.167-4.638-1.068-.931-2.378-.819-3.681-.819H36.527c.054-1.733.076-3.821-1.436-4.727a2.554,2.554,0,0,0-3.621,1.2,8.3,8.3,0,0,0-.394,3.529H27.927l-2.7-2.7c-.38-.38-.7-.824-1.262-.891a8.933,8.933,0,0,0-1.036,0c-3.108,0-6.217-.03-9.323,0a3.722,3.722,0,0,0-2.18.61c-1.335.933-1.431,2.332-1.421,3.823,0,.009-.005.017-.005.026V40.6c0,1.945-.085,4.088,2.147,4.94a11.137,11.137,0,0,0,3.793.225h3.278v4.125c0,1.11-.329,3.049.485,3.959s2.471.644,3.582.644H52.539a.9.9,0,0,0,.212,0c2.171-.25,1.914-2.209,1.914-3.811M43.852,21.318c1.049,0,1.961.4,2.052,1.6.053.7.026,1.41.009,2.116H36.506q.006-1.86,0-3.72ZM34.123,16.51c.532.375.46,1.305.461,1.888,0,.394,0,.788,0,1.183H32.994c-.018-1.087-.037-3.891,1.13-3.071M13.406,44.029c-2-.105-1.669-2.188-1.669-3.6V20.474c0-.008.005-.017.005-.025-.008-1.065-.086-2.355,1.213-2.673a3.7,3.7,0,0,1,.873-.049h9.776a35.55,35.55,0,0,0,3.347,3.336,2.164,2.164,0,0,0,1.451.254h6.181v3.72H33.1c-.448,0-.9,0-1.344-.008,0-.444,0-.888,0-1.332a.96.96,0,0,0-1.918,0c0,.411-.015.857-.026,1.319-2.836-.029-5.677-.069-8.5.02a1.973,1.973,0,0,0-2.063,1.677,7.97,7.97,0,0,0-.028,1.14V44.032c-1.931.008-3.886.1-5.812,0M34.516,26.8c-.147,1.2-.592,2.643-1.815,2.15-.71-.287-.882-1.316-.925-2.15ZM22.224,52.73c-.7,0-1.242.219-1.242-.6V28.645a8.115,8.115,0,0,1,0-1.515c.122-.593,1.227-.327,1.732-.327h7.117a4.469,4.469,0,0,0,1.649,3.656,2.96,2.96,0,0,0,3.352-.116A4.646,4.646,0,0,0,36.474,26.8H50.7c.436,0,1.973-.267,2.2.194a3.671,3.671,0,0,1,0,1.183V51.822c0,.137.115.877-.149.907H22.224Z" transform="translate(-2.439 -3.537)" fill="#fff"/>
      <path id="Path_1932" data-name="Path 1932" d="M51.367,44.372a2.4,2.4,0,0,0,1.653-1.1,4.2,4.2,0,0,0,.572-3.228,2.548,2.548,0,0,0-.684-1.362,2.324,2.324,0,0,0-.752-.463l-.308-.057a2.292,2.292,0,0,0-1.578.625,4.723,4.723,0,0,0-1.488,2.373,2.807,2.807,0,0,0,.048,1.8,2.3,2.3,0,0,0,2.537,1.418" transform="translate(-11.868 -9.307)" fill="#fff"/>
      <path id="Path_1933" data-name="Path 1933" d="M57.821,46.765a1.339,1.339,0,0,0-.786-.711,2.036,2.036,0,0,0-1.523.1A4.457,4.457,0,0,0,53.75,47.6a3.077,3.077,0,0,0-.73,1.952,1.814,1.814,0,0,0,.887,1.569,2.329,2.329,0,0,0,2.544-.105,3.441,3.441,0,0,0,1.149-1.4c.135-.29.237-.594.354-.891q.045-.251.091-.5c0-.046,0-.094,0-.14a2.576,2.576,0,0,0-.223-1.32" transform="translate(-12.932 -11.207)" fill="#fff"/>
      <path id="Path_1934" data-name="Path 1934" d="M37.955,47.329a2.191,2.191,0,0,0,.538-1.583,4.524,4.524,0,0,0-.758-2.385A2.9,2.9,0,0,0,36.469,42.2a1.377,1.377,0,0,0-1.639.25,3.332,3.332,0,0,0-.5.708,4.6,4.6,0,0,0-.253.655L34,44.259a.923.923,0,0,1,0,.112,4.432,4.432,0,0,0,.116,1.49,2.852,2.852,0,0,0,1,1.594,2.1,2.1,0,0,0,2.84-.126" transform="translate(-8.289 -10.254)" fill="#fff"/>
      <path id="Path_1935" data-name="Path 1935" d="M43.745,42.661A2.352,2.352,0,0,0,45,41.13a4.481,4.481,0,0,0-.014-2.432,3.449,3.449,0,0,0-.755-1.514A1.823,1.823,0,0,0,42.7,36.55a1.8,1.8,0,0,0-1.179.57,4.214,4.214,0,0,0-1.129,2.26c-.012.124-.04.31-.048.5a3.246,3.246,0,0,0,.5,1.994,2.3,2.3,0,0,0,2.9.79" transform="translate(-9.839 -8.914)" fill="#fff"/>
      <path id="Path_1936" data-name="Path 1936" d="M43.545,52.351a.174.174,0,0,1,.018.022l0,0a.066.066,0,0,0-.015-.017" transform="translate(-10.621 -12.769)" fill="#fff"/>
      <path id="Path_1937" data-name="Path 1937" d="M43.514,52.287c0-.007,0-.007,0-.013h0a.091.091,0,0,1,0,.014" transform="translate(-10.612 -12.75)" fill="#fff"/>
      <path id="Path_1938" data-name="Path 1938" d="M43.571,52.385l0,0-.007-.009,0,0" transform="translate(-10.627 -12.776)" fill="#fff"/>
      <path id="Path_1939" data-name="Path 1939" d="M43.652,52.47l0,0-.005-.005,0,0" transform="translate(-10.646 -12.797)" fill="#fff"/>
      <path id="Path_1940" data-name="Path 1940" d="M43.5,52.246l.008.017a.261.261,0,0,0-.008-.03s-.007,0,0,.013" transform="translate(-10.608 -12.74)" fill="#fff"/>
      <path id="Path_1941" data-name="Path 1941" d="M43.679,52.494a.06.06,0,0,0-.017-.016l-.005,0a.139.139,0,0,1,.022.02" transform="translate(-10.648 -12.799)" fill="#fff"/>
      <path id="Path_1942" data-name="Path 1942" d="M47.416,49.758c-.22-.483-.373-.99-.545-1.488a4.755,4.755,0,0,0-1.054-1.939,2.959,2.959,0,0,0-2.875-.86,3.346,3.346,0,0,0-1.948,1.272c-.256.324-.511.648-.785.958a9,9,0,0,1-2.351,1.74,14.816,14.816,0,0,0-1.375.859,2.932,2.932,0,0,0-.276,4.492,3.08,3.08,0,0,0,3.588.574c.374-.211.736-.437,1.115-.638a2.612,2.612,0,0,1,.952-.295q.019-.737.039-1.475l.037-1.411c-.036,0-.072,0-.107,0a1.1,1.1,0,0,1-1.066-1.118c0-.13.007-.261.011-.39a.357.357,0,1,1,.715.019l-.009.349c0,.014,0,.028,0,.042s0,.037,0,.057l.005.03a.3.3,0,0,0,.01.032s.006.012.009.031l.008.017c.011.02.023.039.034.059s.019.023.01.013l.005.007c.015.017.031.033.047.048l0,0c-.014-.012-.009-.011.011.009s.038.025.057.036l.019.011.06.02.029.006a.48.48,0,0,0,.065.005c.036,0,.071,0,.106,0q.01-.35.019-.7c.006-.217.011-.434.017-.65a.784.784,0,0,1,.237-.532.76.76,0,0,1,1.283.572l-.048,1.788c-.007.265-.014.533-.021.8h0c.019,0,.038,0,.057,0a.342.342,0,0,1,.039,0c.067-.013.129-.029.194-.048l.036-.017a1.142,1.142,0,0,0,.1-.058h0L43.865,52a.27.27,0,0,1,.037-.029c.026-.023.053-.047.078-.071s.031-.034.046-.05l.008-.01c.012-.019.026-.036.038-.055s.034-.058.051-.088c0-.011.008-.023.013-.033.012-.034.023-.068.032-.1,0-.015.007-.031.011-.047.011-.157.013-.316.017-.476.005-.187.01-.374.015-.56a.435.435,0,0,1,.869.023L45.065,51c0,.178,0,.359-.019.535a1.586,1.586,0,0,1-.565,1.074,1.634,1.634,0,0,1-1.059.363q-.016.58-.031,1.161c-.005.209-.011.418-.017.628a2.893,2.893,0,0,1,.316.22,7.1,7.1,0,0,1,.795.764,4.616,4.616,0,0,0,2,1.565l.37.068a.982.982,0,0,1,.106-.005,3.134,3.134,0,0,0,1.785-.4,2.637,2.637,0,0,0,1.362-2.453,4.3,4.3,0,0,0-1.356-3,6.454,6.454,0,0,1-1.334-1.76" transform="translate(-8.608 -11.071)" fill="#fff"/>
      <path id="Path_1943" data-name="Path 1943" d="M46.845,53.923l0,.005c-.014.015-.01.015,0-.005" transform="translate(-11.422 -13.152)" fill="#fff"/>
      <path id="Path_1944" data-name="Path 1944" d="M46.871,53.893a.157.157,0,0,0-.017.018l0,0a.27.27,0,0,1,.02-.021" transform="translate(-11.427 -13.145)" fill="#fff"/>
      <path id="Path_1945" data-name="Path 1945" d="M46.85,53.921h0l0,0,0,0" transform="translate(-11.427 -13.152)" fill="#fff"/>
    </g>
  </g>
</svg>
